#N canvas 151 195 728 786 10;
#X obj 376 27 r \$1-ping;
#X obj 376 49 t b l;
#X obj 376 173 l;
#X text 403 173 clientnum line;
#X obj 621 747 s server-out;
#X msg 179 692 broadcast \$1 out-amp 0 \, broadcast \$1 tracker 0 \,
broadcast server connection \$1 0;
#X obj 376 151 delay 5000;
#X obj 37 478 print disconnection;
#X obj 82 291 timer;
#X floatatom 82 356 13 0 0 0 - - - 0 0 1, f 13;
#X obj 82 259 r \$1-timer;
#X obj 37 259 t l b;
#X obj 37 431 pack 0 0;
#X msg 37 284 \$1;
#X obj 82 378 - 5000;
#X obj 82 403 / 1000;
#X msg 37 455 client \$1 after \$2 seconds;
#X obj 115 27 r \$1-client-disconnect;
#X msg 200 100 stop;
#X obj 309 27 loadbang;
#X obj 309 50 \$1;
#X obj 309 73 t f f;
#X obj 336 94 - 1;
#X obj 138 147 pack 0 0 0;
#X msg 138 169 \$2 \$3;
#X obj 115 73 t 5000 b 0 b;
#X obj 200 73 r \$1-client-free;
#X msg 555 237 \$2;
#X obj 555 260 text get clients 1;
#X msg 621 705 disconnect \$1;
#X obj 555 282 sel 0;
#X text 555 200 brute force disconnectto prevent stale sockets;
#X obj 82 316 t f f;
#N canvas 726 396 318 415 uptime 0;
#X obj 162 62 t b;
#X obj 39 37 inlet;
#X obj 162 349 outlet;
#X obj 39 275 pack 0 0;
#X obj 162 87 \$1;
#X obj 162 112 - 1;
#X obj 162 137 text get clients 1;
#X obj 162 250 > 0;
#X obj 162 275 sel 1;
#X obj 162 37 r get-uptime;
#X obj 39 299 s uptime;
#X obj 162 162 t f f;
#X connect 0 0 4 0;
#X connect 1 0 3 0;
#X connect 3 0 10 0;
#X connect 4 0 5 0;
#X connect 5 0 6 0;
#X connect 6 0 11 0;
#X connect 7 0 8 0;
#X connect 8 0 2 0;
#X connect 9 0 0 0;
#X connect 11 0 7 0;
#X connect 11 1 3 1;
#X restore 141 291 pd uptime;
#X obj 386 390 kalashnikov 14;
#X obj 477 449 text get clients;
#X obj 477 474 unpack f f f;
#X obj 583 501 ==;
#X obj 583 526 sel 1;
#X obj 414 562 f;
#X obj 431 529 + 1;
#X obj 426 414 t f f f;
#X obj 434 626 text set clients;
#X obj 582 314 t b f f;
#X msg 414 587 \$1 0 0;
#X text 359 339 clean out any references to the disconnected client
\, including part-mapped parts, f 29;
#X obj 376 205 t l l l;
#X connect 0 0 1 0;
#X connect 1 0 6 0;
#X connect 1 1 2 1;
#X connect 2 0 46 0;
#X connect 5 0 4 0;
#X connect 6 0 2 0;
#X connect 8 0 32 0;
#X connect 9 0 14 0;
#X connect 10 0 8 0;
#X connect 11 0 13 0;
#X connect 11 1 8 1;
#X connect 12 0 16 0;
#X connect 13 0 12 0;
#X connect 14 0 15 0;
#X connect 15 0 12 1;
#X connect 16 0 7 0;
#X connect 17 0 25 0;
#X connect 18 0 6 0;
#X connect 19 0 20 0;
#X connect 20 0 21 0;
#X connect 21 0 23 1;
#X connect 21 1 22 0;
#X connect 22 0 23 2;
#X connect 23 0 24 0;
#X connect 24 0 46 0;
#X connect 25 0 14 1;
#X connect 25 1 23 0;
#X connect 25 2 14 1;
#X connect 25 3 18 0;
#X connect 26 0 18 0;
#X connect 27 0 28 0;
#X connect 28 0 30 0;
#X connect 29 0 4 0;
#X connect 30 1 43 0;
#X connect 32 0 9 0;
#X connect 32 1 33 0;
#X connect 33 0 8 1;
#X connect 34 1 41 0;
#X connect 35 0 36 0;
#X connect 36 1 37 0;
#X connect 37 0 38 0;
#X connect 38 0 39 0;
#X connect 39 0 44 0;
#X connect 40 0 39 1;
#X connect 41 0 35 0;
#X connect 41 1 40 0;
#X connect 41 2 42 1;
#X connect 43 0 34 0;
#X connect 43 1 37 1;
#X connect 43 2 29 0;
#X connect 44 0 42 0;
#X connect 46 0 11 0;
#X connect 46 1 5 0;
#X connect 46 2 27 0;
